<svg xmlns="http://www.w3.org/2000/svg" viewBox="0 0 1025.74 1169.85"><defs><style>.cls-1,.cls-2{fill:#fff;}.cls-2{font-size:28.51px;font-family:Futura-Medium, Futura;font-weight:500;letter-spacing:-0.02em;}.cls-3{letter-spacing:0em;}.cls-4{letter-spacing:-0.01em;}</style></defs><title>holmscykler</title><g id="Layer_2" data-name="Layer 2"><g id="Layer_1-2" data-name="Layer 1"><path class="cls-1" d="M157.75,596.71v43.48H109.81V596.71H93V707.85h16.77V656h47.94v51.88h16.78V596.71Z"/><path class="cls-1" d="M258.74,646.54a38.37,38.37,0,0,0-53.12-.08,34.86,34.86,0,0,0-10.86,25.85q0,16.13,10.64,26.76,10.65,10.81,26.42,10.81t26.84-10.59q10.9-10.65,10.89-26.42A35.58,35.58,0,0,0,258.74,646.54ZM247.29,689.3q-5.67,6.11-15.18,6.1c-6.29,0-11.34-2-15.18-6.19s-5.62-9.61-5.62-16.63q0-9.76,5.76-16c3.83-4.13,8.86-6.18,15-6.18s11.35,2.05,15.18,6.18S253,666.15,253,673,251.1,685.22,247.29,689.3Z"/><path class="cls-1" d="M286.67,586.28V707.85h16.21V586.28Z"/><path class="cls-1" d="M395.87,635.82a24.33,24.33,0,0,0-20.66,10.34q-6.88-10.33-18.77-10.34a19.49,19.49,0,0,0-8.86,1.78,34.76,34.76,0,0,0-8,6.62v-6.46h-16.2v70.09h16.2V671.66c0-7.35,1.06-12.72,3.14-16.13s5.4-5.1,10-5.1q10.83,0,10.81,18.72v38.7h16.26V671.66c0-7.46,1-12.83,3.05-16.21s5.29-5,9.75-5c3.86,0,6.62,1.4,8.29,4.24s2.46,7.53,2.46,14.23v39h16.26V664.53Q419.56,635.81,395.87,635.82Z"/><path class="cls-1" d="M480.82,673.82q-4.5-4.7-17.37-10.24c-6.24-2.62-9.34-5.29-9.34-8a4.82,4.82,0,0,1,1.59-3.76,5.31,5.31,0,0,1,3.81-1.48c3.1,0,5.72,2.16,7.83,6.48l13.4-7.13q-6.57-13.91-20-13.88a22,22,0,0,0-15.55,6,20,20,0,0,0-6.24,15.1c0,4.62,1.21,8.4,3.67,11.32,1.92,2.3,5.21,4.59,9.91,6.91,1.68.82,3.35,1.6,5,2.38s3.27,1.54,4.92,2.38q6.32,3.72,6.32,8,0,7.49-8.21,7.48a10,10,0,0,1-7.05-2.73,30.31,30.31,0,0,1-4.4-6.4l-13.81,6.4q7.33,17.22,25,17.21a25.43,25.43,0,0,0,17.55-6.49,22.13,22.13,0,0,0,7.49-17C485.28,681.14,483.79,676.92,480.82,673.82Z"/><path class="cls-1" d="M600.45,610.4q15.56,0,30.09,12.15V602.7a56.72,56.72,0,0,0-28.93-8.13q-27.43,0-44.7,20.37a56.89,56.89,0,0,0-14,37.86,55.11,55.11,0,0,0,16.77,40.44,55.78,55.78,0,0,0,40.68,16.64,60.52,60.52,0,0,0,30.23-8.13V681.52a85.32,85.32,0,0,1-7.81,5.88,41.52,41.52,0,0,1-7.16,3.89,35.52,35.52,0,0,1-15,2.89,39,39,0,0,1-29-12q-11.79-12-11.8-29.52,0-17.7,11.8-29.92A38.32,38.32,0,0,1,600.45,610.4Z"/><path class="cls-1" d="M699.41,637.76l-20,40.3L658,637.76H639.18l31.52,57.07L643.34,746h18.5L717.7,637.76Z"/><path class="cls-1" d="M759,667.2l30.44-29.44H767.72l-22.8,22.66V586.28h-16.2V707.85h16.2v-27l2.6-2.59,23.17,29.57h21Z"/><path class="cls-1" d="M802.13,586.28V707.85h16.21V586.28Z"/><path class="cls-1" d="M889.67,681.87c-3.32,5.18-6.27,8.75-8.86,10.67a16.63,16.63,0,0,1-10,2.86,17.2,17.2,0,0,1-12.75-5c-3.33-3.41-5.19-8-5.62-13.75h50.24l.08-3.84q0-17.34-8.92-27.12c-6-6.59-14.18-9.85-24.49-9.85s-18.42,3.37-24.61,10.12-9.21,15.86-9.21,26.93,3.16,20.15,9.51,26.93,14.72,10.08,25.17,10.08a41.8,41.8,0,0,0,10.16-1.16,30.58,30.58,0,0,0,8.72-3.62,37.35,37.35,0,0,0,7.56-6.35,54.75,54.75,0,0,0,6.68-9.24ZM855.85,658a17.12,17.12,0,0,1,3.62-4.05,15.57,15.57,0,0,1,4.73-2.59,17,17,0,0,1,5.54-.89c8.64,0,14.07,4.29,16.34,12.94H853.53A19.39,19.39,0,0,1,855.85,658Z"/><path class="cls-1" d="M963.84,638.65a24.55,24.55,0,0,0-11-2.83,21.09,21.09,0,0,0-5.24.62,15.49,15.49,0,0,0-3.1,1.16,30.73,30.73,0,0,0-7.92,6.4v-6.24h-16.2v70.09h16.2V671.5c0-11.27,3.16-17.8,9.48-19.48a12.85,12.85,0,0,1,3.76-.51,15.45,15.45,0,0,1,9,3.29l5.83-11.64,1.6-3.18C965.46,639.49,964.65,639.06,963.84,638.65Z"/><path class="cls-1" d="M1019.32,768.41a166.34,166.34,0,0,1-12.89-31.19c-3.07-9.77-3.36-20.46-6.61-30.16-3.42-10.17-2.08-18.58,4-27,7.24-10.18,14-20.58,12.06-33.69a32,32,0,0,0-.77-3.77,4,4,0,0,1-.11-1c0-1.88,1.2-4.1,1.94-6,4.07-10.43,2-16.82-7.61-22.29-3.88-2.2-7.93-4.11-11.69-6,5-14.82,5-14.73-8.07-21-3.85-1.82-7.53-4-11.2-6.21-12.57-7.36-25.57-12.49-40.6-9a9.88,9.88,0,0,1-6.07-.74c-26.37-12.6-53.25-24.29-78.79-38.43-20.44-11.26-39.8-24.74-58.44-38.83-13.54-10.23-25.66-21.83-41.91-28.59-11.94-5-23.06-12.8-33.32-20.89-31.47-24.78-61.29-50.92-75-90.77-3.62-10.49-10.47-20.3-17.48-29.13-14.22-17.94-18.1-18.08-37-5.71-21.41,14.09-45.9,13.86-58.87-3.87-10.06-13.77-22.72-20.24-37.77-25.06a221.38,221.38,0,0,1-25.69-10.43c-20.55-9.55-39-21.7-53.19-40.09a70.26,70.26,0,0,0-21-18.47c-20-10.92-41-19.75-61.12-30.44C311,178.34,294.33,163,289.77,137.81a37.6,37.6,0,0,0-4.85-13q-22-35.23-44.73-70c-1.39-2.11-4.47-3.62-7.07-4.36-16.62-4.7-27-15.88-31.58-31.9-7.3-25.51-14.26-21.67-32.13-6.78-6,5-10.8,11.31-16.25,17-4.22,4.33-8.12,9.15-13,12.6-6.7,4.76-7.84,10-5,17.47,5.51,14.43,5.59,29.36,1.8,44.13-9.61,37.23-26.54,71.27-47.18,103.45-46.41,72.38-65.48,152.17-59.58,237,2.37,34.07,3.16,67.93,3.85,102,.43,22.41,2.79,44.76,4.53,67.13.74,9.47-.65,17.65-6,26.2-4.51,7.16-6.36,16.57-7.27,25.2-1.11,10.55-.23,21.35.17,32,.54,13.51-4,23.8-15.54,31.81-14.17,9.78-12.8,27.51,1.88,34.49-.17,23.92,15.6,39.49,29.85,55.76,1.65,1.86,5,2.85,7.7,3,14.59,1,25.4,8.87,34.43,19.36,7.44,8.61,14,17.93,21,26.91,11.6,14.77,24.46,27.8,43.16,33.47a17.2,17.2,0,0,1,7,4.59c13.2,14.14,30.22,19.47,48.74,21.32,9.58.94,19.19,1.28,28.77,2.25,14.31,1.46,28.93,3.77,39.17,14.68,14.76,15.74,33.35,22,53.56,26.17,19.47,4,40.28,5.73,57.7,14.2,26.94,13.11,51.68,30.85,77,47.12,13.74,8.84,25.57,22.24,40.42,27.37,27.11,9.41,49.92,26.11,75.29,38,49.43,23.23,102.62,35.46,156,46.09,20.81,4.17,41.53,6.33,60.63,18.13,23.29,14.37,48.18,11.41,68.36-6.69,16.57-14.83,30.08-33,45.16-49.55,5.47-6,11.09-12,17.39-17,11.77-9.27,19-20.64,21.35-35.61,3.82-24.11,5-47.4-13.6-66.85a7.5,7.5,0,0,1-1.11-1.79c-7-13.46-5-18.25,8.61-25.06,3.85-1.94,7.21-6.16,9.23-10.15,4.77-9.38,8.07-19.5,12.89-28.85,4.53-8.83,12.57-16.47,14.91-25.68,5.22-20.53,18.1-35.92,29.68-52.46,5.5-7.84,10.8-16,14.79-24.65C1027.22,800.6,1028.36,784.63,1019.32,768.41Zm-17.87,46.52c-8.53,14-19,26.72-27.54,40.66-5.1,8.29-8.07,17.9-12.26,26.76-3,6.42-6.47,12.6-9.81,18.85-6.64,12.51-13.14,25.08-20.12,37.4a24.86,24.86,0,0,1-7.81,7.87c-14.46,9.52-18.62,21.35-12.26,37.68,2,5.25,4.19,11,7.9,15,16.64,18.27,8.75,38.74,5.61,58.58-.71,4.42-4.19,9.83-8,12.11-19.07,11.46-28.62,31.33-43,46.81-8.49,9.07-16.87,18.45-26.57,26.12-14,11.14-31.15,13.68-45.92,3.56-21.38-14.71-46-15.2-69.56-21.1-46.46-11.68-92.79-24.2-138.29-39.14-17-5.58-31.47-18.9-47.12-28.62-3.25-2-6.64-5.16-10-5.3-19.33-.68-34.35-10.72-49.09-21.52-7.47-5.45-14.63-11.35-21.95-17-41.39-32.13-86.35-55.9-139.6-61.43a66.44,66.44,0,0,1-42.22-20.64c-13.51-14.06-31.87-18.05-50.66-19.73-9.23-.83-18.47-1.4-27.71-2.17-16.16-1.39-30.53-6.38-41-19.75a14.34,14.34,0,0,0-7.78-5.05c-16.19-3.16-27.05-13.6-36.6-25.94-7.19-9.29-14-18.87-21.47-27.94-10.92-13.25-24.34-22.75-41.59-26.2-8.18-1.62-27.34-26.42-27.45-34.77a8.77,8.77,0,0,1,.11-2.11c4.36-16.48,4.36-16.48-11.34-25.43,2.73-2,5.13-3.51,7.35-5.28,11.09-8.78,16.22-20.58,16.62-34.38.34-11.4-.77-22.86.06-34.18.57-7.61,1.17-17,5.7-22.15,8.78-9.94,8.35-20.52,7.67-31.89-1.66-27.71-4.82-55.45-4.51-83.16.29-28.08-1.65-55.73-3.67-83.67-5.36-74.12,7.21-145.27,44.47-211,17.33-30.61,33.95-61.69,49.29-93.3,12.74-26.31,19.84-54.16,12.23-83.84-.57-2.17-.4-5.47.91-7,9.18-10.29,18.76-20.24,29.19-31.33,2.34,4.94,4.16,8.58,5.79,12.29C194.72,45.81,203,55.76,215.13,61c10.38,4.47,17.65,11.43,23.24,20.86,11.2,18.9,27.08,36.49,32.72,56.93,10.12,36.46,34,57.13,65.34,72.58,15.94,7.87,32.27,15,48.15,23,5,2.51,10.38,5.79,13.34,10.23,16.28,24.46,39.71,39.31,65.77,51,5.5,2.46,11.09,4.85,16.79,6.82,15.14,5.24,28.22,12.08,39.45,25,19.07,22,50.72,23.29,77.91,5.18,8.21-5.47,12.77-3.7,17.16,3.23,4.94,7.81,10.52,15.48,13.8,24,23.78,61.12,72.49,96.7,127.54,126a66.67,66.67,0,0,1,14,9.32c25.37,23.24,53.39,42,84.32,57.5,18.73,9.41,38,17.19,56.76,26.06,12.32,5.81,22.58,10.46,37,9.35,9.64-.77,20,7.55,30,11.91a4.15,4.15,0,0,1,1.94,2.34c1.85,5.56,2.42,12,5.67,16.48,3.08,4.3,8.93,6.58,13.54,9.75l-2.59.34c.2,3.45.63,6.9.88,10.35a40.44,40.44,0,0,1-1.62,16.45c-1,3.36-2.25,6.67-3.48,9.94-1.65,4.37-4.22,8.84-6.53,13.23-3.25,6.19-6,12.26-5.13,17.73,1,6,2.08,12,3.28,18,4,19.73,9.44,39.31,17.48,57.44C1009,788.17,1009.91,801.11,1001.45,814.93Z"/><text class="cls-2" transform="translate(90.19 737.99)">R<tspan class="cls-3" x="16.7" y="0">epa</tspan><tspan class="cls-4" x="66.66" y="0">r</tspan><tspan class="cls-3" x="77.13" y="0">ation &amp; salg</tspan></text><path class="cls-1" d="M343.24,933.59c-.54.74-1.1,1.45-1.6,2.22A32.77,32.77,0,0,1,304,949.15c-14.56-4.9-23.67-18.33-22.54-33.48.22-3,1-6,1.58-9.27-3.45-1.3-6.95-2.74-10.53-3.91-2.36-.77-3.37-2.16-3.75-4.59-2.14-13.84-4.42-27.66-6.65-41.49-.16-1-.37-1.94-.63-3.34l-9.14,10.4c.87,1.15,1.56,2,2.22,2.92a32.75,32.75,0,1,1-54.39,2.52c9-15.42,29.39-20.47,45-11,1.86,1.12,2.78.7,4-.75,6.22-7.18,12.53-14.29,18.81-21.42,1-1.12,2-2.25,3.27-3.75-2.68-1-4.94-1.86-7.21-2.7-2-.75-3.17-2.17-2.45-4.25.78-2.25,2.64-2.62,4.78-1.81,3.16,1.2,6.33,2.36,9.49,3.56,5.17,2,5.56,3.67,1.82,7.91-2.94,3.34-5.87,6.69-8.93,10.19l39,14.66,2.24-6c-2-.75-3.81-1.4-5.6-2.12-2-.8-3-2.34-2.16-4.39s2.46-2.44,4.33-1.75q9,3.26,17.83,6.68c2,.76,3,2.32,2.18,4.38s-2.57,2.47-4.6,1.7L316.53,856c-1,2.84-3.36,5.15-.58,8,.45.46.27,1.56.33,2.37.13,1.91.24,3.82.35,5.64a4.81,4.81,0,0,0,.82.26c.71.1,1.42.17,2.13.28,12.49,1.82,22.84,7.45,30.62,17.45a5.3,5.3,0,0,1,.79,4.36c-.9,2.35-3.81,2.2-5.71-.21a40.28,40.28,0,0,0-13.91-11.32A34.74,34.74,0,0,0,316.93,879a32.34,32.34,0,0,1,.08,4c-.19,2,.86,2.56,2.63,2.87a32.69,32.69,0,0,1,26.94,36.38c-.13,1.1-.21,2.22-.32,3.33ZM207.18,870.14A26.21,26.21,0,0,0,248,903c8.61-9.84,8.57-25.79-.28-34.26l-15,16.92c-.68.76-1.34,1.54-2.06,2.26a3.06,3.06,0,0,1-4.64.19c-1.48-1.38-1.45-3.08-.08-4.64l12.55-14.24,4.36-5A26.14,26.14,0,0,0,207.18,870.14Zm90.11,68a26.17,26.17,0,0,0,42.25-26.22c-2.53-10.53-11.57-18.66-22-19.59.29,6.84.6,13.66.89,20.47.22,5.18-1.39,6.36-6.18,4.56l-22.56-8.46A26,26,0,0,0,297.29,938.12Zm-22.67-45.47L306.3,866.4,268.07,852C270.26,865.64,272.39,878.82,274.62,892.65ZM310,871.89l-31.16,25.87c2.49.94,4.35,1.75,6.28,2.3a2.33,2.33,0,0,0,2-.64c5.74-8,13.59-12.5,23.51-14C310.38,881,310.18,876.8,310,871.89ZM311.7,910c-.27-6.09-.53-11.85-.79-17.62-6.77.24-14.7,4.95-17.82,10.63Z"/></g></g></svg>