<svg xmlns="http://www.w3.org/2000/svg" width="409.3" height="466.8"><defs><style>.cls-1{fill:#fff}</style></defs><g id="Layer_2" data-name="Layer 2"><g id="Layer_1-2" data-name="Layer 1"><path class="cls-1" d="M63 238.1v17.35H43.82V238.1h-6.7v44.35h6.7v-20.7H63v20.7h6.69V238.1zm40.25 19.9a15.33 15.33 0 0 0-21.2 0 13.94 13.94 0 0 0-4.34 10.32A14.5 14.5 0 0 0 82 279a14.22 14.22 0 0 0 10.54 4.31 14.79 14.79 0 0 0 10.67-4.31 15 15 0 0 0 0-21zm-4.57 17.07a8.72 8.72 0 0 1-12.12 0 9.38 9.38 0 0 1-2.24-6.64 9 9 0 0 1 2.3-6.37 8.62 8.62 0 0 1 12.06 0 10.51 10.51 0 0 1 0 13.05zm15.71-41.13v48.51h6.47v-48.51zM158 253.71a9.71 9.71 0 0 0-8.24 4.12 8.58 8.58 0 0 0-7.49-4.12 7.75 7.75 0 0 0-3.54.71 13.67 13.67 0 0 0-3.19 2.64v-2.58H129v28h6.46V268q0-4.39 1.25-6.44a4.33 4.33 0 0 1 4-2c2.88 0 4.31 2.49 4.31 7.47v15.44h6.49V268c0-3 .41-5.12 1.22-6.47a4.23 4.23 0 0 1 3.89-2 3.54 3.54 0 0 1 3.31 1.69c.64 1.11 1 3 1 5.68v15.54h6.49v-17.28q0-11.46-9.42-11.45zm33.86 15.16c-1.2-1.25-3.5-2.61-6.93-4.08-2.49-1.05-3.73-2.12-3.73-3.19a1.9 1.9 0 0 1 .64-1.5 2.11 2.11 0 0 1 1.52-.6c1.23 0 2.28.87 3.12 2.59l5.35-2.84q-2.62-5.55-8-5.54a8.74 8.74 0 0 0-6.21 2.38 8 8 0 0 0-2.49 6 6.79 6.79 0 0 0 1.47 4.52 12.36 12.36 0 0 0 3.95 2.76l2 .95c.65.3 1.3.61 2 .94 1.68 1 2.52 2.06 2.52 3.22q0 3-3.28 3a4 4 0 0 1-2.81-1.09 12 12 0 0 1-1.76-2.55l-5.5 2.55q2.92 6.87 10 6.87a10.14 10.14 0 0 0 7-2.59 8.84 8.84 0 0 0 3-6.78 7 7 0 0 0-1.86-5.02zm47.73-25.31q6.21 0 12 4.85v-7.92a22.7 22.7 0 0 0-11.54-3.24 22.26 22.26 0 0 0-17.84 8.13 22.7 22.7 0 0 0-5.6 15.11 22 22 0 0 0 6.69 16.13 22.24 22.24 0 0 0 16.23 6.64A24.14 24.14 0 0 0 251.6 280v-8.07a32.66 32.66 0 0 1-3.12 2.35 16.2 16.2 0 0 1-2.85 1.55 14.14 14.14 0 0 1-6 1.16 15.59 15.59 0 0 1-11.56-4.8 16.2 16.2 0 0 1-4.71-11.78 16.57 16.57 0 0 1 4.71-11.94 15.29 15.29 0 0 1 11.52-4.91zm39.49 10.92l-8 16.08-8.56-16.08h-7.49l12.58 22.78-10.92 20.42h7.38l22.29-43.2zm23.79 11.75L315 254.48h-8.67l-9.1 9v-29.54h-6.46v48.51h6.46v-10.77l1-1 9.24 11.8h8.39zm17.2-32.29v48.51h6.47v-48.51zM355 272.08a16.51 16.51 0 0 1-3.54 4.26 6.62 6.62 0 0 1-4 1.14 6.89 6.89 0 0 1-5.09-2 8.45 8.45 0 0 1-2.24-5.49h20v-1.53q0-6.91-3.56-10.82c-2.4-2.63-5.66-3.93-9.78-3.93a12.64 12.64 0 0 0-9.81 4q-3.68 4.11-3.68 10.74t3.8 10.75a13.14 13.14 0 0 0 10 4 16.25 16.25 0 0 0 4.05-.47 11.85 11.85 0 0 0 3.48-1.44 15 15 0 0 0 3-2.53 21.51 21.51 0 0 0 2.66-3.69zm-13.49-9.54a6.52 6.52 0 0 1 1.44-1.61 6.12 6.12 0 0 1 1.89-1 6.92 6.92 0 0 1 2.21-.35c3.44 0 5.61 1.71 6.52 5.16h-13a7.51 7.51 0 0 1 .94-2.2zm43.08-7.7a9.67 9.67 0 0 0-4.37-1.13 8.51 8.51 0 0 0-2.09.24 6.35 6.35 0 0 0-1.24.47 12.27 12.27 0 0 0-3.16 2.55v-2.49h-6.47v28h6.47v-14.54c0-4.49 1.26-7.1 3.78-7.77a5.13 5.13 0 0 1 1.5-.2 6.16 6.16 0 0 1 3.59 1.31l2.33-4.64.63-1.27a10.21 10.21 0 0 0-.97-.53z"/><path class="cls-1" d="M406.73 306.62a66.35 66.35 0 0 1-5.14-12.45c-1.23-3.9-1.34-8.17-2.64-12a11.09 11.09 0 0 1 1.58-10.8c2.89-4.06 5.6-8.21 4.82-13.44a12.67 12.67 0 0 0-.31-1.51 1.27 1.27 0 0 1-.04-.42 7.83 7.83 0 0 1 .78-2.4c1.62-4.17.79-6.72-3-8.9-1.55-.88-3.16-1.64-4.66-2.41 2-5.92 2-5.88-3.22-8.36-1.54-.73-3-1.62-4.47-2.48-5-2.94-10.21-5-16.2-3.61a4 4 0 0 1-2.42-.29c-10.53-5-21.25-9.69-31.44-15.34A195.27 195.27 0 0 1 317 196.72c-5.41-4.08-10.24-8.71-16.73-11.41A58.26 58.26 0 0 1 287 177c-12.56-9.88-24.46-20.31-29.94-36.21-1.45-4.19-4.18-8.1-7-11.63-5.68-7.15-7.23-7.21-14.76-2.27-8.54 5.61-18.31 5.52-23.49-1.55-4-5.5-9.06-8.08-15.07-10a90.11 90.11 0 0 1-10.25-4.16c-8.2-3.81-15.57-8.66-21.22-16a27.94 27.94 0 0 0-8.4-7.37c-8-4.35-16.37-7.88-24.39-12.15-8.39-4.5-15.04-10.66-16.86-20.66a14.71 14.71 0 0 0-1.93-5.17q-8.79-14.06-17.85-27.95A5.19 5.19 0 0 0 93 20.13c-6.63-1.87-10.76-6.33-12.6-12.72-2.89-10.18-5.67-8.65-12.8-2.71-2.39 2-4.31 4.51-6.49 6.77a39.55 39.55 0 0 1-5.18 5c-2.68 1.9-3.13 4-2 7a28.58 28.58 0 0 1 .71 17.61c-3.83 14.85-10.59 28.43-18.82 41.28C17.3 111.24 9.69 143.08 12 176.94c1 13.59 1.27 27.11 1.54 40.69.17 8.94 1.11 17.86 1.81 26.79A16.1 16.1 0 0 1 13 254.87c-1.8 2.86-2.54 6.61-2.9 10.06a90.75 90.75 0 0 0 .06 12.77c.22 5.39-1.58 9.5-6.19 12.69-5.66 3.91-5.11 11 .75 13.77-.07 9.54 6.22 15.75 11.91 22.25a4.85 4.85 0 0 0 3.07 1.21c5.82.41 10.13 3.54 13.74 7.73 3 3.43 5.59 7.15 8.39 10.74 4.62 5.91 9.75 11.09 17.17 13.35a6.89 6.89 0 0 1 2.78 1.83c5.27 5.64 12.06 7.77 19.45 8.51 3.82.38 7.66.51 11.48.9 5.71.58 11.54 1.5 15.63 5.86 5.89 6.28 13.31 8.79 21.37 10.44 7.77 1.58 16.07 2.29 23 5.66 10.75 5.24 20.63 12.31 30.74 18.81 5.48 3.52 10.2 8.87 16.13 10.92 10.82 3.75 19.92 10.42 30 15.17 19.73 9.27 40.95 14.15 62.25 18.4 8.3 1.66 16.57 2.52 24.19 7.23 9.29 5.73 19.22 4.55 27.28-2.67 6.61-5.92 12-13.19 18-19.77a60.64 60.64 0 0 1 6.93-6.77 21.66 21.66 0 0 0 8.52-14.21c1.53-9.62 2-18.92-5.42-26.67a3.5 3.5 0 0 1-.45-.72c-2.78-5.37-2-7.28 3.44-10a9.37 9.37 0 0 0 3.69-4.05c1.9-3.74 3.21-7.78 5.14-11.51 1.81-3.53 5-6.57 6-10.25 2.08-8.19 7.22-14.33 11.84-20.93a64.25 64.25 0 0 0 5.9-9.84c2.99-6.32 3.45-12.69-.16-19.16zm-7.13 18.56c-3.4 5.57-7.57 10.66-11 16.22-2 3.31-3.22 7.14-4.89 10.68-1.2 2.56-2.58 5-3.91 7.52-2.65 5-5.24 10-8 14.92a9.85 9.85 0 0 1-3.12 3.14c-5.77 3.8-7.43 8.52-4.89 15a19 19 0 0 0 3.15 6c6.64 7.29 3.49 15.45 2.24 23.37a7.76 7.76 0 0 1-3.18 4.84c-7.61 4.57-11.42 12.5-17.18 18.67A100.22 100.22 0 0 1 338.2 456c-5.61 4.45-12.43 5.46-18.33 1.43-8.53-5.87-18.34-6.07-27.75-8.42-18.54-4.67-37-9.66-55.18-15.62-6.79-2.23-12.56-7.54-18.8-11.42-1.3-.8-2.65-2.06-4-2.12-7.71-.27-13.71-4.27-19.59-8.58-3-2.18-5.83-4.53-8.75-6.8-16.52-12.82-34.46-22.3-55.71-24.51a26.48 26.48 0 0 1-16.84-8.23c-5.4-5.61-12.72-7.2-20.22-7.88-3.68-.33-7.37-.55-11-.86-6.45-.56-12.19-2.55-16.38-7.88a5.73 5.73 0 0 0-3.11-2c-6.46-1.26-10.8-5.42-14.61-10.35-2.86-3.71-5.58-7.53-8.56-11.15-4.36-5.28-9.72-9.07-16.6-10.45-3.26-.65-10.91-10.54-11-13.88a3.94 3.94 0 0 1 0-.84c1.74-6.57 1.74-6.57-4.52-10.14 1.09-.79 2-1.4 2.93-2.11a17.29 17.29 0 0 0 6.63-13.72c.14-4.55-.3-9.12 0-13.64.22-3 .46-6.8 2.27-8.83 3.5-4 3.33-8.19 3.06-12.73-.66-11.06-1.92-22.13-1.8-33.18.12-11.21-.66-22.24-1.46-33.39-2.14-29.58 2.87-58 17.74-84.2 6.98-12.23 13.61-24.63 19.73-37.25 5.08-10.5 7.92-21.61 4.88-33.45a3.5 3.5 0 0 1 .36-2.8c3.67-4.1 7.49-8.07 11.65-12.5.93 2 1.66 3.42 2.31 4.9 2.15 4.88 5.45 8.85 10.29 10.95a19.35 19.35 0 0 1 9.27 8.33c4.48 7.54 10.81 14.56 13.06 22.72 4 14.55 13.55 22.79 26.07 29 6.36 3.14 12.88 6 19.22 9.16 2 1 4.14 2.3 5.32 4.08 6.5 9.76 15.85 15.68 26.24 20.34 2.2 1 4.43 1.93 6.7 2.72 6 2.09 11.26 4.82 15.75 10 7.61 8.78 20.23 9.3 31.08 2.07 3.28-2.18 5.1-1.48 6.85 1.29 2 3.12 4.2 6.18 5.51 9.57 9.48 24.38 28.92 38.58 50.89 50.28a26.47 26.47 0 0 1 5.58 3.72 147 147 0 0 0 33.65 23c7.48 3.75 15.15 6.86 22.65 10.39 4.91 2.32 9 4.18 14.76 3.74 3.85-.31 8 3 12 4.75a1.66 1.66 0 0 1 .77.93c.74 2.22 1 4.78 2.27 6.58s3.56 2.63 5.4 3.89l-1 .13c.08 1.38.25 2.76.35 4.13a19.15 19.15 0 0 1 0 3.47 18.8 18.8 0 0 1-.65 3.1c-.4 1.34-.9 2.66-1.39 4a50.35 50.35 0 0 1-2.6 5.27c-1.3 2.47-2.4 4.9-2 7.08.4 2.39.83 4.8 1.31 7.19a110.51 110.51 0 0 0 7 22.92c2.73 6.3 3.1 11.46-.3 16.98z"/><path class="cls-1" d="M160.34 355.26l1.47-2.14-1.76-1c-.84-.48-1.68-1-2.51-1.48a1.61 1.61 0 0 1-.38-.31.54.54 0 0 1 0-.87 3.53 3.53 0 0 1 .28-.25l10.81 3.3-.74 2.4-2.88-.81-.23.3c-.36.47-.71.95-1.08 1.42a.83.83 0 0 0-.19.68c.34 2.55.66 5.1 1 7.66 0 .16 0 .32.08.5a12.69 12.69 0 0 1 10.72 5.3 12.41 12.41 0 0 1 2.38 9.11 12.84 12.84 0 0 1-25.53-2.77l-2.77-.87-2.28-.71a3.5 3.5 0 0 1-2-1.8c-.49-.95-1-1.93-1.4-2.91-.57-1.26-1.1-2.54-1.66-3.81s-1-2.32-1.56-3.47c-.71-1.54-1.43-3.08-2.16-4.6s-1.38-2.81-2.07-4.22l-.15-.26-1.73 2.43a12.77 12.77 0 0 1 4.53 10.71 12.25 12.25 0 0 1-3.79 8.28 12.84 12.84 0 1 1-3.08-20.54c.19-.26.37-.53.55-.81 1.32-2 2.61-3.93 4-5.88.75-1.11 1.54-2.19 2.35-3.26a7.65 7.65 0 0 1 1.52-1.54 3.61 3.61 0 0 1 2.69-.68 13.61 13.61 0 0 1 2.53.56c.93.26 1.84.55 2.76.83l.2.08-.74 2.42c-.71-.21-1.38-.44-2.07-.63s-1.67-.45-2.51-.63a1.83 1.83 0 0 0-1.95.74c-.44.59-.84 1.21-1.25 1.82-.25.38-.48.76-.75 1.19zM130 357.05a9.83 9.83 0 1 0 4.3 13.81 9.72 9.72 0 0 0-2-12.23c-.44.64-.88 1.29-1.33 1.93-1.22 1.78-2.44 3.56-3.68 5.33a8.12 8.12 0 0 1-.88 1 .82.82 0 0 1-.43.2 1.31 1.31 0 0 1-1.48-1.5 4.06 4.06 0 0 1 .64-1.42l4.15-6.08c.2-.35.43-.68.71-1.04zm24.82 20.19a9.7 9.7 0 0 0 4.51 8.61 9.83 9.83 0 0 0 14.39-12 9.75 9.75 0 0 0-9.1-6.17v.28l.18 1.45c.33 2.54.66 5.09 1 7.63.07.62.14 1.25.16 1.88a1.11 1.11 0 0 1-1.31 1.22 9.38 9.38 0 0 1-2-.48l-6.85-2.17zm-17.17-26c.14.45 9.67 20.41 9.9 20.66l11-14.34zm24.2 16.9a9.84 9.84 0 0 0-4.44 2.71 9.53 9.53 0 0 0-2.21 3.82L163 377c-.42-3-.8-5.91-1.19-8.9zm-1.12-8.69h-.08L150 373l2.26.7a13 13 0 0 1 9.16-8.68z"/><path class="cls-1" d="M161.81 368.1c.39 3 .77 5.94 1.15 8.94l-7.8-2.41a9.53 9.53 0 0 1 2.21-3.82 9.84 9.84 0 0 1 4.44-2.71zM39.92 290.82l2.65 3.66H41L38.54 291h-.23v3.51H37v-8.61h1.52a3.8 3.8 0 0 1 2.46.64 2.36 2.36 0 0 1 .83 1.88 2.46 2.46 0 0 1-.51 1.58 2.32 2.32 0 0 1-1.38.82zm-1.61-1h.41c1.23 0 1.84-.47 1.84-1.41s-.6-1.31-1.79-1.31h-.46zm10.06 2.25h-3.88a1.68 1.68 0 0 0 .43 1.06 1.34 1.34 0 0 0 1 .39 1.26 1.26 0 0 0 .77-.23 3.07 3.07 0 0 0 .68-.82l1.06.59a4.21 4.21 0 0 1-.52.71 2.65 2.65 0 0 1-.58.49 2.32 2.32 0 0 1-.67.28 3.29 3.29 0 0 1-.79.09 2.55 2.55 0 0 1-1.94-.78 2.89 2.89 0 0 1-.73-2.07 3 3 0 0 1 .71-2.08 2.44 2.44 0 0 1 1.9-.78 2.41 2.41 0 0 1 1.88.76 3 3 0 0 1 .69 2.09zm-1.29-1a1.2 1.2 0 0 0-1.26-1 1.42 1.42 0 0 0-.42.07 1.46 1.46 0 0 0-.37.2 1.43 1.43 0 0 0-.28.32 1.38 1.38 0 0 0-.18.41zm3.92 6.35h-1.27v-8.35H51v.58a2.39 2.39 0 0 1 3.52.09 3 3 0 0 1 .73 2.06 2.91 2.91 0 0 1-.73 2 2.38 2.38 0 0 1-3.52 0zm3-5.61a1.87 1.87 0 0 0-.42-1.27 1.35 1.35 0 0 0-1.07-.5 1.42 1.42 0 0 0-1.12.48 1.8 1.8 0 0 0-.43 1.26 1.83 1.83 0 0 0 .43 1.25 1.41 1.41 0 0 0 1.11.49 1.37 1.37 0 0 0 1.07-.49 1.78 1.78 0 0 0 .43-1.22zm6.54-2.74h1.26v5.41h-1.26v-.57a2.39 2.39 0 0 1-1.66.72 2.37 2.37 0 0 1-1.85-.81 3 3 0 0 1-.73-2.07 2.88 2.88 0 0 1 .73-2 2.34 2.34 0 0 1 3.51 0zm-3 2.68A1.92 1.92 0 0 0 58 293a1.38 1.38 0 0 0 1.08.5 1.42 1.42 0 0 0 1.12-.48 1.84 1.84 0 0 0 .43-1.26 1.81 1.81 0 0 0-.43-1.25 1.47 1.47 0 0 0-2.19 0 1.83 1.83 0 0 0-.43 1.24zm5.83-2.68h1.25v.48a2.18 2.18 0 0 1 .62-.49 1.29 1.29 0 0 1 .64-.14 2 2 0 0 1 1 .32l-.57 1.14a1.2 1.2 0 0 0-.69-.25c-.68 0-1 .51-1 1.54v2.81h-1.25zm8.17 0h1.25v5.41h-1.25v-.57a2.41 2.41 0 0 1-3.52-.09 3 3 0 0 1-.72-2.07 2.92 2.92 0 0 1 .72-2 2.37 2.37 0 0 1 1.83-.81 2.33 2.33 0 0 1 1.69.77zm-3 2.68A1.87 1.87 0 0 0 69 293a1.37 1.37 0 0 0 1.08.5 1.44 1.44 0 0 0 1.12-.48 1.89 1.89 0 0 0 .43-1.26 1.86 1.86 0 0 0-.43-1.25 1.44 1.44 0 0 0-1.11-.49 1.41 1.41 0 0 0-1.08.49 1.83 1.83 0 0 0-.44 1.24zm7.12-1.52v4.25h-1.25v-4.25h-.53v-1.16h.53v-2h1.25v2h1v1.16zm1.63-3.41a.82.82 0 1 1 1.39.58.75.75 0 0 1-.57.24.82.82 0 0 1-.82-.82zm1.44 2.25v5.41h-1.25v-5.41zm1.33 2.66a2.68 2.68 0 0 1 .84-2 2.8 2.8 0 0 1 2-.82 2.84 2.84 0 0 1 2.06.82 2.79 2.79 0 0 1 .83 2 2.71 2.71 0 0 1-.84 2 2.84 2.84 0 0 1-2.07.82 2.78 2.78 0 0 1-2-.83 2.8 2.8 0 0 1-.82-1.99zm1.28 0a1.83 1.83 0 0 0 .43 1.29 1.53 1.53 0 0 0 1.17.48 1.5 1.5 0 0 0 1.17-.48 1.73 1.73 0 0 0 .44-1.26 1.76 1.76 0 0 0-.44-1.26 1.65 1.65 0 0 0-2.33 0 1.76 1.76 0 0 0-.44 1.25zm5.81-2.66h1.26v.5a2 2 0 0 1 1.48-.65 1.86 1.86 0 0 1 1.47.59 2.47 2.47 0 0 1 .45 1.65v3.32h-1.25v-3a1.93 1.93 0 0 0-.23-1.1.87.87 0 0 0-.78-.31 1 1 0 0 0-.89.41 2.84 2.84 0 0 0-.25 1.42v2.61h-1.26zm13.36.64l1.54 1.86v-.05c.17-.19.33-.36.48-.54s.29-.35.42-.53l.85.87c-.11.15-.24.32-.41.52l-.6.68 1.59 2h-1.61l-.86-1.05a3.41 3.41 0 0 1-2.45 1.21 2.77 2.77 0 0 1-1.93-.72 2.41 2.41 0 0 1-.78-1.82A2.53 2.53 0 0 1 98 290l.56-.38.08-.06a2.64 2.64 0 0 1-.85-1.78 1.85 1.85 0 0 1 .57-1.41 2 2 0 0 1 1.49-.55 2.1 2.1 0 0 1 1.46.53 1.82 1.82 0 0 1 .26 2.34 5.39 5.39 0 0 1-1.06 1.02zm-1 .72l-.07.05a5.84 5.84 0 0 0-1.08.89 1.06 1.06 0 0 0-.29.7 1.47 1.47 0 0 0 1.41 1.41 2.68 2.68 0 0 0 1.73-1zm.28-1.64l.11-.07.45-.36a1.9 1.9 0 0 0 .25-.26.8.8 0 0 0 .17-.51.73.73 0 0 0-.23-.55.85.85 0 0 0-.61-.21.88.88 0 0 0-.59.22.66.66 0 0 0-.24.53 1.16 1.16 0 0 0 .3.74l.32.39zm12.08 1.21l-1 .55c-.17-.33-.37-.5-.61-.5a.44.44 0 0 0-.29.11.37.37 0 0 0-.13.29c0 .21.24.42.73.62a4.39 4.39 0 0 1 1.33.79 1.34 1.34 0 0 1 .35 1 1.69 1.69 0 0 1-.58 1.31 1.91 1.91 0 0 1-1.35.5 2 2 0 0 1-1.93-1.33l1.07-.49a2.28 2.28 0 0 0 .33.49.82.82 0 0 0 .55.22c.42 0 .63-.2.63-.58 0-.22-.16-.43-.49-.62l-.38-.19-.38-.18a2.4 2.4 0 0 1-.76-.53 1.33 1.33 0 0 1-.29-.88 1.52 1.52 0 0 1 .48-1.16 1.68 1.68 0 0 1 1.2-.46 1.63 1.63 0 0 1 1.52 1.04zm5.46-.93h1.25v5.41h-1.25v-.57a2.41 2.41 0 0 1-3.52-.09 3 3 0 0 1-.72-2.07 2.92 2.92 0 0 1 .72-2 2.36 2.36 0 0 1 1.82-.81 2.33 2.33 0 0 1 1.7.77zm-3 2.68a1.87 1.87 0 0 0 .42 1.27 1.36 1.36 0 0 0 1.08.5A1.44 1.44 0 0 0 117 293a1.89 1.89 0 0 0 .43-1.26 1.86 1.86 0 0 0-.43-1.25 1.44 1.44 0 0 0-1.11-.49 1.41 1.41 0 0 0-1.08.49 1.83 1.83 0 0 0-.45 1.26zm7.08-6.65v9.38h-1.25v-9.38zm6.82 9.25a6.59 6.59 0 0 1 0 .67c0 .2 0 .37-.07.52a2.36 2.36 0 0 1-.52 1 2.54 2.54 0 0 1-2 .84 2.68 2.68 0 0 1-1.78-.58 2.38 2.38 0 0 1-.83-1.66h1.25a1.44 1.44 0 0 0 .24.61 1.34 1.34 0 0 0 1.13.51q1.38 0 1.38-1.68v-.76a2.33 2.33 0 0 1-1.72.76 2.31 2.31 0 0 1-1.81-.8 3 3 0 0 1-.71-2 3.16 3.16 0 0 1 .66-2 2.3 2.3 0 0 1 1.88-.87 2.19 2.19 0 0 1 1.7.76v-.61h1.25zm-1.2-2.57a1.8 1.8 0 0 0-.43-1.26 1.39 1.39 0 0 0-1.09-.48 1.32 1.32 0 0 0-1.12.53 2.18 2.18 0 0 0 0 2.43 1.47 1.47 0 0 0 2.25 0 1.83 1.83 0 0 0 .36-1.22z"/></g></g></svg>