<svg xmlns="http://www.w3.org/2000/svg" xmlns:xlink="http://www.w3.org/1999/xlink" viewBox="0 0 3006 1670"><defs><style>.cls-1,.cls-2,.cls-3,.cls-4,.cls-5,.cls-6,.cls-7,.cls-8{fill:#e6e6e6;}.cls-1{opacity:0.9;}.cls-2{opacity:0.8;}.cls-3{opacity:0.7;}.cls-4{opacity:0.6;}.cls-5{opacity:0.5;}.cls-6{opacity:0.4;}.cls-7{opacity:0.3;}.cls-9{fill:url(#linear-gradient);}.cls-10{fill:#64893d;}.cls-11{fill:#c6c881;}.cls-12{fill:#739c3f;}.cls-13{fill:#638139;}.cls-14{fill:#7c9d4c;}.cls-15{fill:#77a048;}.cls-16{fill:url(#linear-gradient-2);}.cls-17{fill:url(#linear-gradient-3);}.cls-18{fill:url(#linear-gradient-4);}.cls-19{fill:url(#linear-gradient-5);}.cls-20{fill:url(#linear-gradient-6);}.cls-21{fill:#cfc2bc;}.cls-22{fill:#f8e9e2;}.cls-23{fill:#e6d8d1;}.cls-24{fill:#393d3f;}.cls-25{fill:#4b4f7b;}.cls-26{fill:#c7977b;}.cls-27{fill:#cfc4bd;}.cls-28{fill:#dba686;}.cls-29{fill:#f4ddbe;}.cls-30{fill:#e9ebfd;}.cls-31{fill:#82a2f1;}.cls-32{fill:#c2b7b1;}.cls-33{fill:#dba585;}.cls-34{fill:#263643;}.cls-35{fill:#363957;}.cls-36{fill:#88bb7f;}.cls-37{fill:#53739c;}.cls-38{fill:#2e3048;}.cls-39{fill:#dfd2ca;}.cls-40{fill:#222333;}</style><linearGradient id="linear-gradient" x1="2087.5" y1="1670" x2="2087.5" y2="167" gradientUnits="userSpaceOnUse"><stop offset="0" stop-color="#e59148"/><stop offset="1" stop-color="#f1cc52"/></linearGradient><linearGradient id="linear-gradient-2" x1="4057.26" y1="-438.35" x2="4559.05" y2="-438.35" gradientTransform="matrix(0.84, 0.3, -0.23, 0.66, -1599.16, -17.07)" gradientUnits="userSpaceOnUse"><stop offset="0" stop-color="#4d759d"/><stop offset="1" stop-color="#769a42"/></linearGradient><linearGradient id="linear-gradient-3" x1="4240.46" y1="-311.14" x2="5035.69" y2="-311.14" xlink:href="#linear-gradient-2"/><linearGradient id="linear-gradient-4" x1="3831.46" y1="-303.08" x2="4340.73" y2="-303.08" xlink:href="#linear-gradient-2"/><linearGradient id="linear-gradient-5" x1="2724.1" y1="2859.31" x2="2812.24" y2="2355.15" gradientTransform="matrix(0.87, 0.06, 0.06, 0.72, -320.52, -707.69)" xlink:href="#linear-gradient-2"/><linearGradient id="linear-gradient-6" x1="2033.08" y1="1658.76" x2="2033.08" y2="965.97" gradientUnits="userSpaceOnUse"><stop offset="0.24" stop-color="#e7e1d6"/><stop offset="0.26" stop-color="#e3ded4"/><stop offset="1" stop-color="#dabda5"/></linearGradient></defs><title>bike</title><g id="Layer_2" data-name="Layer 2"><g id="_Layer_" data-name="&lt;Layer&gt;"><path class="cls-1" d="M2828,0l-11,8.92c-27.12,21.91-67.36,35-107.61,35a202.93,202.93,0,0,1-73.55-14.23c-21.41-8.31-44.56-18.57-68.94-29.69h-4c25.61,11.72,49.93,22.54,72.34,31.23,24.58,9.52,49.53,14.36,74.15,14.36,40.61,0,81.22-13.23,108.65-35.4L2830.65,0ZM1575.71,92.32a576.93,576.93,0,0,0-119.47,214.49c-39.31,129-26.52,244.59-21.08,293.92.34,2.91.67,5.88.81,7.48,1.47,16.17,3.84,32,6.34,48.73,4.28,28.76,11.46,76.89,9.72,118a1.67,1.67,0,0,1,0,.37A53.1,53.1,0,0,1,1428.22,817c-34.2,22.78-80.46,47.06-122.58,69.21-122.55,64.39-275,144.52-359.38,295.25-76.26,136.27-97.13,284.64-60.39,429.06a563.49,563.49,0,0,0,18.8,59.45h1.81a562.77,562.77,0,0,1-19-59.88c-36.67-144-15.83-291.92,60.23-427.83C1031.83,1032,1184.1,952,1306.41,887.71c41.48-21.78,88.44-46.46,122.74-69.28a54.92,54.92,0,0,0,24.52-43.08l0-.37c1.74-41.25-5.44-89.44-9.75-118.27-2.51-16.73-4.84-32.53-6.31-48.66-.14-1.3-.37-3.48-.64-5.78l-.17-1.7c-5.44-49.24-18.2-164.57,21-293.26A574.84,574.84,0,0,1,1577,93.42,604.44,604.44,0,0,1,1681.16,0h-2.87A606.49,606.49,0,0,0,1575.71,92.32Z"/><path class="cls-1" d="M1524.74,0q-12.46,12.72-24.21,26.09a675.71,675.71,0,0,0-140.11,251.53c-45.36,148.73-31,278.66-24.85,334.13l.2,1.71c.16,1.57.33,3.1.43,4.11,1.74,18.93,4.41,36.84,7,54.17,1.77,11.92,4.11,27.59,6,44.19A46.9,46.9,0,0,1,1325.35,762c-21.48,12-44.69,24.18-66.3,35.53-127.19,66.84-301.34,158.39-400.24,335-89,159.08-113.26,332.93-70,502.7q4.41,17.45,9.92,34.74h1.74c-3.67-11.66-7-23.38-10-35.13-43.12-169.38-19-342.79,69.87-501.51,98.63-176.22,272.55-267.6,399.53-334.33,22-11.59,44.86-23.58,66.37-35.57a48.56,48.56,0,0,0,24.65-47.73c-1.87-16.6-4.24-32.57-6-44.26-2.57-17.3-5.24-35.17-7-54.07-.07-.8-.2-1.91-.33-3.11l-.1-1-.2-1.67c-6.12-55.38-20.48-185.07,24.78-333.5a673.84,673.84,0,0,1,139.74-250.9Q1514,13.25,1527.08,0Z"/><path class="cls-2" d="M1394.35,0h-2.1a776.44,776.44,0,0,0-127.69,248.4c-51.37,168.47-35.41,312.75-28.59,374.38l.2,1.73.13,1.11c.07.6.13,1.17.17,1.67,2,21.57,5,41.58,7.65,59.25v.06a7.34,7.34,0,0,1-3.81,7.52c-9.29,4.94-18.64,9.88-27.89,14.73-65,34.13-145.79,76.62-223.85,134.57-95.29,70.77-166.33,149.33-217.16,240.17C669.57,1265.53,642,1464.86,691.68,1660c.84,3.34,1.74,6.68,2.67,10h1.71c-1-3.47-1.87-7-2.78-10.42-49.56-194.72-22-393.62,79.56-575.15,50.74-90.65,121.65-169,216.73-239.68,77.93-57.88,158.72-100.33,223.68-134.46,9.22-4.85,18.58-9.76,27.83-14.67a9,9,0,0,0,4.67-9.32c-2.64-17.63-5.61-37.64-7.61-59.18L1238,626l0-.54-.13-1.1-.2-1.7c-6.82-61.52-22.75-205.58,28.52-373.75C1293.92,157.81,1336.93,74.28,1394.35,0Z"/><path class="cls-2" d="M1271.84,0h-2a878,878,0,0,0-101.07,219.17C1111.35,407.38,1128.89,566,1136.4,633.8l.2,1.77c-62.29,33-135.17,73.51-207.75,127.42C822,842.35,741.88,931.22,684,1034.67,571.87,1234.9,539.84,1454.24,591,1670h1.7c-51.17-215.5-19.2-434.53,92.72-634.54,57.82-103.23,137.78-191.91,244.46-271.13,71.27-52.94,141.85-92.49,207.51-127.29l1-.54-.13-1.13-.2-1.74c-7.48-67.67-25-226.08,32.3-414A875.64,875.64,0,0,1,1271.84,0Z"/><path class="cls-3" d="M1155.1,0h-1.93a986.11,986.11,0,0,0-80.3,190c-48.86,160.28-48.69,299.83-42.28,389.24C979.42,607.91,924,641.71,869.1,682.53c-118.47,88-207.61,187.14-272.58,303.2C476,1201.16,438.81,1436.9,488.31,1670H490c-49.53-232.8-12.46-468.27,108-683.46C662.82,870.71,751.83,771.71,870.1,683.87c47.06-34.94,99.84-68.71,161.29-103.25l.94-.5-.1-1.06c-9.59-134.41,4.61-265.17,42.25-388.61A980.3,980.3,0,0,1,1155.1,0Z"/><path class="cls-3" d="M1042.08,0h-1.84a1084.77,1084.77,0,0,0-63.19,160.72c-35.37,116-51.9,237.61-49.33,362.39-43.16,26.09-82.23,52.14-118.34,79-130.06,96.56-228.29,206-300.3,334.67-129.12,230.69-171.2,482.9-123,733.23h1.7c-48.23-250.07-6.21-502,122.78-732.4,71.88-128.42,169.94-237.74,299.8-334.16,36.34-27,75-52.77,118.24-78.89l.83-.5,0-1c-2.57-124.52,14-246.29,49.23-361.86A1087.85,1087.85,0,0,1,1042.08,0Z"/><path class="cls-4" d="M929.82,0a1197.62,1197.62,0,0,0-48.63,131.5c-32.93,108-50.9,220.77-53.57,336.07-27.36,17.73-53.17,35.64-78,54.07-141.65,105.18-248.93,225-328,366.2C284,1133.87,237,1402.5,284.13,1670h1.74c-47.13-267.23-.3-535.6,137.24-781.36,79-141,186.07-260.62,327.52-365.66,25-18.57,50.47-36.24,77.89-54l.73-.5,0-.87C832,352.54,850,239.65,882.8,132A1190.46,1190.46,0,0,1,931.66,0Z"/><path class="cls-4" d="M821.21,0q-20,50.1-35.88,102.27a1347.23,1347.23,0,0,0-55.67,310.35c-13.5,9.39-26.69,18.87-39.78,28.56C536.67,555,420.34,685.07,334.23,838.91c-146.29,261.32-198,546.46-151.7,831.09h1.67c-46.26-284.37,5.34-569.24,151.47-830.29,86-153.61,202.2-283.53,355.21-397.16,13-9.69,26.39-19.27,39.74-28.56l.67-.46,0-.81a1347.63,1347.63,0,0,1,55.61-310Q802.92,50.38,823,0Z"/><path class="cls-5" d="M714,0q-13.23,36.08-24.48,73.08A1442.39,1442.39,0,0,0,633.4,358.35l-3.24,2.4C465.36,483.13,339.94,623.54,246.79,789.94,92,1066.59,35.57,1368.23,81.06,1670h1.67c-45.46-301.47,10.82-602.84,165.5-879.22,93-166.23,218.3-306.45,382.93-428.69l3.24-2.41.6-.43.07-.73a1445,1445,0,0,1,56-285Q702.45,36.28,715.73,0Z"/><path class="cls-5" d="M607.78,0q-7.41,21.8-14.13,43.85a1540.18,1540.18,0,0,0-55.18,260.76C377.69,429.86,253.44,573,159.35,741,84.84,874.11,31.63,1012.66,0,1154.24v7.81c31.36-144,85.07-284.93,160.82-420.24,94.09-168.1,218-310.68,378.66-435.9l.56-.4.07-.7A1541.44,1541.44,0,0,1,595.25,44.32Q602.07,22,609.55,0Z"/><path class="cls-6" d="M502.37,0c-1.57,4.88-3.07,9.75-4.58,14.63a1642,1642,0,0,0-53.2,236.71c-156,127.45-278.22,272-372.68,440.74Q32.13,763.12,0,836v4.14q32.71-74.55,73.38-147.26C167.9,524.05,289.64,380,445.66,252.6l.5-.4.06-.63A1641.6,1641.6,0,0,1,499.4,15.13Q501.7,7.57,504.11,0Z"/><path class="cls-6" d="M397.59,0a1743.89,1743.89,0,0,0-46,198.43C207.75,321,92.28,458.18,0,616.06v3.28c92.58-159,208.15-296.46,352.67-419.64l.43-.37.11-.6A1751.21,1751.21,0,0,1,399.33,0Z"/><path class="cls-7" d="M293.39,0c-13.3,47.86-24.69,96.69-34.11,145.89C160.19,233.63,74.35,328.32,0,432.1v2.8C74.62,330.49,160.72,235.4,260.39,147.16l.43-.4.1-.54C270.34,97,281.8,48,295.12,0Z"/><path class="cls-7" d="M189.64,0q-12.16,46.4-22.07,93.69A1833.14,1833.14,0,0,0,0,268.6v2.57A1830.89,1830.89,0,0,1,168.67,94.92l.4-.36.1-.54c6.61-31.53,14-63,22.18-94Z"/><path class="cls-8" d="M2987.39,0,2880,86.81c-45.06,36.44-107.25,57.31-170.61,57.31-36.84,0-73.75-7.08-109.75-21-32.2-12.46-66.14-28.12-102-44.72C2440.44,52,2375.88,22.21,2304.3,0h-5.75c73.58,22.31,139.85,52.91,198.37,79.93,36,16.6,69.9,32.26,102.13,44.75,36.18,14,73.32,21.11,110.36,21.11,63.76,0,126.31-21,171.64-57.68L2990,0ZM1846,20.11c-78.56,34.07-144.23,80.66-195.16,138.44A477.56,477.56,0,0,0,1552.1,336c-33.3,109.28-22.11,210.48-17.34,253.7.4,3.68.84,7.49,1,9.32,1.21,13.36,3.28,27.16,5.65,43.09,4.81,32.3,12.89,86.34,10.72,137-1.8,42.66-11,75.49-24.58,87.85-41.25,37.5-109.42,73.31-175.32,108-116.56,61.25-248.69,130.69-318.53,255.47-63.5,113.43-81,236.34-50.7,355.38a475.56,475.56,0,0,0,30.29,84.2h1.84a473.32,473.32,0,0,1-30.53-84.6c-30.2-118.64-12.73-241.11,50.57-354.14,69.6-124.38,201.5-193.69,317.86-254.84,66-34.67,134.24-70.55,175.62-108.19,13.93-12.66,23.31-45.92,25.15-89,2.17-50.8-5.91-104.94-10.75-137.31-2.37-15.93-4.41-29.65-5.62-43-.16-1.84-.6-5.68-1-9.39-4.77-43.12-16-144,17.27-253a475.27,475.27,0,0,1,98.43-176.89c50.77-57.61,116.23-104,194.56-138Q1874.85,9.41,1903.37,0h-5.25Q1871.92,8.87,1846,20.11Z"/><path class="cls-8" d="M2943,164.73c-62.56,50.6-147.7,79.59-233.6,79.59-49.27,0-98.37-9.35-145.93-27.76-35.13-13.62-70.47-29.92-107.85-47.19C2351.43,121.31,2233.36,66.8,2097.42,66.8,2026.25,66.8,1955.07,82,1885.9,112c-64.93,28.16-118.71,66.1-159.85,112.8A376.52,376.52,0,0,0,1648,365.26c-27.33,89.55-18,173.25-13.6,213.46.51,4.54.94,8.49,1.17,11.29,1,10.49,2.74,22.34,5,37.34,10.72,71.78,35.77,239.78-45.56,313.76-50.74,46.13-124.62,85-196.09,122.55-109.35,57.44-222.38,116.86-277.72,215.73-50.7,90.58-64.9,188-41.05,281.69A388.31,388.31,0,0,0,1127,1670h2a387.55,387.55,0,0,1-47.26-109.32c-23.75-93.29-9.58-190.28,40.88-280.49,55.11-98.43,167.94-157.72,277.06-215.06,71.57-37.61,145.55-76.52,196.46-122.78,82-74.55,56.81-243.22,46.05-315.23-2.23-15-4-26.82-4.94-37.24-.23-2.88-.7-7-1.2-11.36-4.41-40.08-13.66-123.54,13.56-212.76a375.48,375.48,0,0,1,77.75-139.84c41-46.49,94.53-84.3,159.22-112.36,69-29.93,140-45.09,210.89-45.09,135.57,0,253.47,54.41,357.51,102.44,37.41,17.27,72.75,33.57,107.92,47.19,47.79,18.5,97.09,27.89,146.56,27.89,86.27,0,171.81-29.12,234.63-80L3006,116v-2.18Z"/><path class="cls-9" d="M1254.84,1670c-58.73-55.54-132.91-186.91-46.27-341.69,72.07-128.76,315-186.83,453.8-313.07s78.31-375.35,73-434.26-46.27-274.36,190.42-377,414.65,33.66,601.52,106,368.38,21.88,478.72-67.33V1670Z"/><path class="cls-10" d="M1821.07,1025.48S1676.74,849.08,1619,768.89s121.14,375.11,136,423.3S1830.69,1282.07,1821.07,1025.48Z"/><path class="cls-11" d="M1796.68,1136.83c-34-61.85-370.12-393.6-370.12-393.6,3.21,102.64,211.69,346.4,211.69,346.4S1830.69,1198.68,1796.68,1136.83Z"/><path class="cls-12" d="M1959,1291.1c-388.09-143-753.72-68.67-753.72-68.67,53.46,73.42,561.28,68.67,561.28,68.67Z"/><path class="cls-13" d="M1877.55,1303.67C1680.3,1088.88,1215.38,985.4,1215.38,985.4,1352.74,1125.68,1550,1248.69,1550,1248.69S2074.79,1518.45,1877.55,1303.67Z"/><path class="cls-14" d="M1917.29,1280.17c-115.47-213.58-555.06-424.68-555.06-424.68,0,67.35,356.2,380.69,356.2,380.69S2032.75,1493.75,1917.29,1280.17Z"/><path class="cls-15" d="M1905,1265a277.42,277.42,0,0,0,4.52-100.47c-15.29-114.25-68.41-468-146.22-521.64,0,0-35.15,458.36,38.49,612.52C1857.06,1371.07,1890.09,1328.28,1905,1265Z"/><path class="cls-16" d="M2057.8,1377.32s64.12-28.06,82.38-89.39,30.05-145.78,79.75-167.45,154.12-79.57,157.3-152.26S2223.48,809.05,2259.7,791s101.52-66.14,37.4-105.59S2198.91,639,2182,585.75s-78.8-80.64-92.58.34-52.17,99.42-44,167,47,131.18-61.39,146.07-69.08,88.16-45,141.56,29.82,263.92,37,300.52S2013.48,1401.88,2057.8,1377.32Z"/><path class="cls-17" d="M2030.43,1414s147.19-55.29,193-45.23,130.84,34.43,164.48-3.87,60.95-167.59,168.66-153,147.5-11,141.4-75.41,168.65-161.65,137.24-197.11-269.49,29.33-340.24,54-139.18-32-178.35,36.59-169.87,127.06-213.3,115.2-78.48-18-89.23,47.13-54.74,105-66.37,145.48S1920.7,1407.55,2030.43,1414Z"/><path class="cls-18" d="M1922.65,663.05c-5.16-39.85-73.84-58.42-84.61-8.48s14.19,116.12-80.13,174.09,49.58,126.86,84.79,196.68,28.83,146.39,58.1,206.93S1923,1410.36,1974,1383.63s34.6-90.79,64.08-161,127.6-86.48,61.9-161.72-143.19-118.62-79.21-213.15C2049,806.09,1938.68,787,1922.65,663.05Z"/><path class="cls-19" d="M1941.06,1373.87s50.94-47.5,25.12-149.84-75-105.41,80.55-122,94.48-264,216.68-249.38,335.6-275.24,407-203.41-99.74,190.4-55.21,260,31.2,133.23-113.26,137.44,6.14,269-186.27,265.39S2093,1550.61,1941.06,1373.87Z"/><path class="cls-20" d="M1396.46,1283.91c11-.94,263.47-19.14,316,14.35s314.46-22.3,356.15-8.91,655.3-35.49,685.27,46.65-21.48,124.44-240.79,143.83-236.58,141.52-541.8,97C1615.05,1524.79,1091,1310.13,1396.46,1283.91Z"/><polygon class="cls-21" points="2206.45 1230.24 2239.16 1188.7 2242.79 1189.61 2208.99 1232.23 2206.45 1230.24"/><rect class="cls-22" x="2210.55" y="1182.73" width="61.55" height="7.08"/><path class="cls-23" d="M2508.59,1357.73c-94.55,0-171.46-76.92-171.46-171.46s76.91-171.46,171.46-171.46S2680,1091.73,2680,1186.27,2603.13,1357.73,2508.59,1357.73Zm0-295.32a123.86,123.86,0,1,0,123.86,123.86A124,124,0,0,0,2508.59,1062.41Z"/><path class="cls-24" d="M2508.59,1373c-103,0-186.76-83.78-186.76-186.75s83.78-186.75,186.76-186.75,186.75,83.77,186.75,186.75S2611.56,1373,2508.59,1373Zm0-336.48c-82.57,0-149.73,67.17-149.73,149.73S2426,1336,2508.59,1336s149.73-67.17,149.73-149.73S2591.15,1036.54,2508.59,1036.54Z"/><path class="cls-23" d="M1964.4,1357.73c-94.54,0-171.45-76.92-171.45-171.46s76.91-171.46,171.45-171.46,171.46,76.92,171.46,171.46S2059,1357.73,1964.4,1357.73Zm0-295.32a123.86,123.86,0,1,0,123.86,123.86A124,124,0,0,0,1964.4,1062.41Z"/><path class="cls-24" d="M1964.4,1373c-103,0-186.75-83.78-186.75-186.75s83.78-186.75,186.75-186.75,186.76,83.77,186.76,186.75S2067.38,1373,1964.4,1373Zm0-336.48c-82.56,0-149.73,67.17-149.73,149.73S1881.84,1336,1964.4,1336s149.73-67.17,149.73-149.73S2047,1036.54,1964.4,1036.54Z"/><path class="cls-25" d="M2211.57,547.47,2169.1,683.13,2136,788.85s-72.65,5.75-60.7-46.05c5.68-24.61,14.21-49.3,24-72.44,25-59.27,57.89-108.35,71.32-119.78C2189.26,534.7,2211.57,547.47,2211.57,547.47Z"/><path class="cls-23" d="M2169.1,683.13,2136,788.85s-75.3,5.49-63.34-46.31c5.67-24.61,16.43-49.15,26.59-72.18Z"/><path class="cls-26" d="M2416.83,830.05s14.23,1.05,16.39,1.27,6.55,3.89,11.16,8.53,8.43,13,8.1,14.09a6.07,6.07,0,0,1-2.55,4.32,13.3,13.3,0,0,1-5.56,2.53s-1.84,3.67-5.74,4.06a6.92,6.92,0,0,1-6.35,3.16s-1.94,3.28-5.14,2.86c0,0-4.41-3.67-6.5-4.56S2410,857.17,2403.22,848C2403.22,848,2400.15,837.11,2416.83,830.05Z"/><path class="cls-27" d="M2485.42,930.33l-5.82-7.17c.41-.33,29-24,30.72-49.37.63-9.58-2.6-18-9.89-25.75-7.82-8.32-16.87-12.59-26.91-12.7-23.52-.24-45.44,21.82-45.66,22l-.19.18-27.52,25-6.22-6.83,27.44-24.95c2-2,25.1-24.72,51.74-24.72h.47c12.66.13,24,5.38,33.58,15.61,9,9.58,13.18,20.59,12.37,32.7C2517.56,903.85,2486.73,929.26,2485.42,930.33Zm-2.91-3.58-2.92-3.58h0Z"/><path class="cls-28" d="M2226.88,818.49S2296,867.19,2311.3,881s51.11,46.25,51.73,51.76,4.71,14.14-11.2,39.56-45.09,73-49.36,81.48c-9,17.91-47.3,84.08-47.3,84.08l-20.68-4s24-88.29,46.84-144.63c6-14.86,21.21-35.44,16.63-41.87s-58.73-20.14-161.53-76.81c-10.28-5.66-18.21,6.4-16.68-8.61s.59-68.31,31.18-79.65S2226.88,818.49,2226.88,818.49Z"/><path class="cls-28" d="M2235.13,1131.53s-5,14.7-4.72,19,21.78-4.09,21.78-4.09a74,74,0,0,1,3.28-9.16S2247.71,1127.21,2235.13,1131.53Z"/><path class="cls-29" d="M2253.53,1143.33s14.21,12.27,22.8,12.64,34.31,5.91,35.56,10.43,10.41,15.78-38.41,16.62c-48.22.82-52.36-.37-51.29-9.21s4.59-20.91,6.38-29.52Z"/><path class="cls-26" d="M2448.55,854.93s-11.34-10.84-13.59-9.23-2.12,3.39-2.12,3.39l-7-2.35s-5.79.94-3.45,6.43c0,0-5.47.37-2.5,5.38,0,0-3.61,1.73-2.7,4.3s8.54,9.25,8.54,9.25,2.36.69,4.86-2.7a6.46,6.46,0,0,0,6-3,7.06,7.06,0,0,0,5.42-3.83s7.37-.81,7.65-6.46A15.76,15.76,0,0,0,2448.55,854.93Z"/><rect class="cls-23" x="2158.7" y="905.1" width="9.23" height="334.12" transform="translate(-205.42 604.69) rotate(-15.2)"/><path class="cls-23" d="M2057.64,881s-2,29.41,25.39,32.64,76.56,0,76.56,0S2089.47,864.86,2057.64,881Z"/><path class="cls-26" d="M2308.86,628.26s29.95,87.74,35.07,97.42,72.9,104.37,72.9,104.37l-13.61,18s-83-99.55-86-104.94-42.38-102.33-42.38-102.33Z"/><path class="cls-28" d="M2255.18,410.16s50.86,20.76,39.13,88.26-58.4,70.32-81.54,14.54S2197.18,398.55,2255.18,410.16Z"/><path class="cls-30" d="M2258.47,568.28s34.38,21,40.56,30.3c13.65,20.42,11,43.82,10.84,50-.52,20.75-15.09,39.66-20.57,48.31-3.25,5.13-11.54,34.21-22.75,46.63-11.41,12.66-38,60.45-38,60.45s-64.82,21.27-92-42.41c0,0,22.12-46.33,26.07-69,12-68.92,17.27-79.66,22.25-89.21,9.24-17.73,27.24-32.83,31.37-36.46S2258.47,568.28,2258.47,568.28Z"/><path class="cls-28" d="M2195.47,593.26c8-6.9,36.47-8.89,45.37,28.71s37.19,113.2,42,120.07S2387.2,847.8,2387.2,847.8l-14.6,14.27s-110-75.28-115.71-85.79-65.78-120.35-66.18-127.63S2175.26,610.67,2195.47,593.26Z"/><path class="cls-30" d="M2258.47,568.28s48.83,17.88,57,66L2295.92,642S2226,570.83,2258.47,568.28Z"/><path class="cls-28" d="M2251.09,549.24s-.65,13.5,1.58,17.08l5.8,2s16.23,31.39-1.87,34.69-36.21-14-40.28-36.06c0,0,4.16-29.3,1.48-40.85S2251.09,549.24,2251.09,549.24Z"/><path class="cls-23" d="M2493.63,941.34l-5.83-7.16c.42-.34,29-24,30.73-49.38.63-9.58-2.6-18-9.89-25.75-7.82-8.32-16.87-12.59-26.91-12.69-23.52-.25-45.44,21.81-45.66,22l-.19.18-27.52,25-6.22-6.83,27.44-24.95c2-2,25.1-24.72,51.75-24.72h.45c12.67.13,24,5.38,33.59,15.61,9,9.58,13.17,20.59,12.36,32.71C2525.77,914.86,2494.94,940.27,2493.63,941.34Zm-2.91-3.58-2.92-3.58h0Z"/><rect class="cls-31" x="2177.03" y="1250.84" width="42.88" height="3.23" transform="translate(-150.47 2192.87) rotate(-51.49)"/><polygon class="cls-23" points="2504.13 1188.49 2417.97 875.34 2426.87 872.9 2513.04 1186.07 2504.13 1188.49"/><path class="cls-23" d="M2520.75,1187.28a12.17,12.17,0,1,1-12.16-12.17A12.16,12.16,0,0,1,2520.75,1187.28Z"/><polygon class="cls-23" points="2208.82 1238.42 1956.83 1188.34 2126.04 932.31 2438.32 932.31 2440.82 950.56 2145.49 953.47 1990.92 1174.54 2203.22 1219.76 2440.14 951.65 2447.84 967.93 2208.82 1238.42"/><path class="cls-32" d="M2209.26,1283.91a50.93,50.93,0,1,1,50.06-41.64h0A51,51,0,0,1,2209.26,1283.91Zm0-90.33a39.49,39.49,0,1,0,7.2.67A39.46,39.46,0,0,0,2209.23,1193.58Z"/><path class="cls-23" d="M2217.18,1234.45a8.07,8.07,0,1,1-6.47-9.41A8.08,8.08,0,0,1,2217.18,1234.45Z"/><path class="cls-33" d="M2387.2,847.8s7.57,3.34,11.1,3.17,25.22-2.34,28,1.39,23.63,24.74,20.81,27.91-4.94,1.59-6.35,0-17.46-15.1-19.4-15.31c0,0,14.28,16,11.82,20.79s-6.88,3.88-9.53,4.76-7.05,4.24-11.81,2.12-23.31-19.24-27.72-22.07-15.66-10.37-15.84-11.43S2387.2,847.8,2387.2,847.8Z"/><path class="cls-28" d="M2202.48,888.6s2.24,79.44,2.46,91.3c.26,12.94.51,59.79-.66,65.67S2195,1222,2195,1222l-25.12-4.34S2154.27,1077.44,2155,1059c1.28-34.89-52.9-194.84-53.2-208.38S2202.48,888.6,2202.48,888.6Z"/><polygon class="cls-28" points="2194.97 1222.01 2195.13 1233.23 2171.99 1232.4 2169.85 1217.66 2194.97 1222.01"/><path class="cls-29" d="M2195,1226.91s14.22,12.26,22.81,12.62,34.31,5.89,35.57,10.4,9.47,19.62-38.75,17.94-52-1.62-51-10.46,4.57-20.92,6.36-29.53Z"/><path class="cls-30" d="M2230.48,801.54s18,26.78,68.3,66.66c0,0-145.83,86.45-168.29,87.79-3.29.2-15.43-32.63-24.63-51.41,0,0-38.76-57.77,6.08-112.64,15.16-18.55,24.69-30.33,24.69-30.33Z"/><rect class="cls-22" x="2157.01" y="1266.69" width="61.55" height="7.08" transform="translate(57.92 -94.89) rotate(2.52)"/><path class="cls-23" d="M1976.63,1187.28a12.17,12.17,0,1,1-12.16-12.17A12.16,12.16,0,0,1,1976.63,1187.28Z"/><path class="cls-25" d="M2160.67,650.65c-10,0-14-4.39-15.49-8.08-7.36-17.73,31.61-58.84,43.74-71l2.16-2.17,3,.8c2,.55,49.8,13.8,52,43.76a24.1,24.1,0,0,1-6.57,18.82C2228.09,645,2203.06,650.65,2160.67,650.65Zm33.54-69.4c-21.75,22.31-42.29,50-39.26,57.26.4,1,2.59,1.56,5.72,1.56,38.17,0,62.07-4.88,71-14.51a13.7,13.7,0,0,0,3.76-10.85C2234.21,597.38,2207.55,585.46,2194.21,581.25Z"/><path class="cls-34" d="M2240.85,438.78s50.3,26.93,55.2,41.47c0,0,14.42-26.61-11.9-66.45s-80.49-35.15-108.05-5.64-29.57,83.3-68.76,87.92-65.92-10.87-70.94,35.53-60.06,12.89-67,49.48,43.1,80.9,103.82,32,75.71-12.83,100.71-15.15,55.16-6.08,44.43-70.51S2240.85,438.78,2240.85,438.78Z"/><path class="cls-30" d="M2193.33,669.27s53-24.79,59-24.79c0,0-10.87-70.52-54.86-53.32C2197.5,591.16,2165,608.09,2193.33,669.27Z"/><path class="cls-33" d="M1754,460.07,1641.93,606.62s-12.4,18.7-33,57.9c-27,51.23-51.15,107.77-51.15,107.77s14.89,17.73,25,11.82C1599.11,774.56,1685.07,646.84,1686,637s88.51-97.71,88.51-97.71S1774.17,465.8,1754,460.07Z"/><path class="cls-35" d="M1741,432.54l-21.11,171.51L1703.4,737.69s-85.61,22.78-82.65-41.78c1.4-30.67,6.21-62.06,12.8-91.86,16.88-76.33,45.51-142.23,59.07-158.82C1711.49,422.15,1741,432.54,1741,432.54Z"/><path class="cls-36" d="M1719.85,604.05,1703.4,737.69s-88.84,23-85.87-41.51c1.4-30.67,8.9-62.37,16-92.13Z"/><path class="cls-37" d="M1528.35,1287.74s-2,11.21,5.77,26.19,42.53,53.15,40.14,68.82-42.58,13.83-67.81-13.77-62.71-56.25-61.33-62.88,39.23-41,52.38-45.63S1528.35,1287.74,1528.35,1287.74Z"/><path class="cls-37" d="M2073.1,1311.1s20.18,8.8,38,11.22,60.61-4.63,72.77,7-14,45.49-53.5,50.53-90,13.39-94.9,8.13-9-52.57-4.94-66.81S2073.1,1311.1,2073.1,1311.1Z"/><path class="cls-33" d="M1806.34,402.69s-.08,32.32,4.79,44.63-68.45-22-68.45-22,6.79-37.63-1.11-59.49S1806.34,402.69,1806.34,402.69Z"/><path class="cls-38" d="M1990.71,986.78,1900.56,1047s-19-13.25-41.28-30.1c-5.46-4.13-11.13-8.47-16.76-12.87-18.87-14.79-37.42-30.38-47-41.49-24.22-28,28.78-204.75,95.73-125.89C1891.22,836.62,1972.92,940.19,1990.71,986.78Z"/><path class="cls-38" d="M1885.88,815.65s-35.25,183.69-76.77,249.54c0,0-81.45-15.11-113.83-27.81,0,0,.91-138.68,4-175.24C1702.23,828.05,1885.88,815.65,1885.88,815.65Z"/><path class="cls-23" d="M1911.47,810.8c-2,6.35-8.83,34.42-15.46,34.85l-196.7,16.49s9.31-152.54-5.41-233.47c-9.78-53.79,4.38-141.1,36.63-188.2a117.11,117.11,0,0,1,12.15-15.15s68.24,21.11,71.64,21.79c1.1.22,8,6.88,16.87,17.81h0c18.52,22.72,45.89,63.86,48.54,103.79,3.93,59.12,33.33,99.59,38.44,166.21C1921.17,773.75,1918.85,786.74,1911.47,810.8Z"/><path class="cls-33" d="M2031,701a4.19,4.19,0,0,1-1.7,1.6c-3.25,2.05-10.79,4.49-21,7.05-41.73,10.42-128.45,22.77-154,18.12C1820.77,721.6,1754,571.22,1754,571.22l61.24-38.78,50.33,102a50.65,50.65,0,0,0,21.55,22.3c9.89,5.26,23.09,10.94,34.55,11.33,22.11.74,53,.95,75.38,1,10.43,0,19,0,24,0l4.78,0S2035.12,691.29,2031,701Z"/><polygon class="cls-33" points="2068.56 1289.35 2073.1 1311.1 2030.49 1321.22 2024.06 1298.84 2068.56 1289.35"/><polygon class="cls-33" points="1542.22 1272.98 1528.02 1288.29 1496.06 1261.05 1510.75 1244.01 1542.22 1272.98"/><path class="cls-38" d="M1990.71,986.78s17.15,47.46,57.87,203.26c0,0,23.54,86.19,27.58,96s-72.65,26.67-72.82,16.37-81.53-216.07-102.78-255.4C1881.85,1012.33,1990.71,986.78,1990.71,986.78Z"/><path class="cls-38" d="M1811.08,1061.33c-24.57,55-263.33,217.61-263.33,217.61s-16.64-10.22-30.42-20.37c-2.87-2.11-5.6-4.21-8-6.23a65.24,65.24,0,0,1-7.51-7c-9.94-11.49,49.93-68.68,49.93-68.68,134.51-155.31,143.9-174.71,143.9-174.71s14.49.6,36.5,3.6c3.16.44,6.42.91,9.72,1.45C1782.69,1013.61,1826,1027.86,1811.08,1061.33Z"/><path class="cls-23" d="M1848.85,579.66l-84.08,36.1s-2.46-5.85-5.65-14.88l84.14-37.57C1847,572.93,1848.85,579.66,1848.85,579.66Z"/><path class="cls-23" d="M1831.19,464.92c-61-9.58-100.66-24.45-100.66-24.45a117.11,117.11,0,0,1,12.15-15.15s68.24,21.11,71.64,21.79C1815.42,447.33,1822.29,454,1831.19,464.92Z"/><path class="cls-33" d="M1828.53,298.25s18.6,31.55,18.66,38.16-7.93,6.62-3.74,13.54,12.68,19.88,8.59,24.07-13.87,2.14-15.9,11.14-13.38,36.41-25.88,36.35-55.49-21.72-58.35-30.54-19.19-58-24.39-67.5,85.3-55.14,93.15-40.18Z"/><path class="cls-34" d="M1826.86,295.06s13.45-6.54,8.65-19.85-16.25-31-42.52-22.5-46.13,26.46-64.28,29.39-22.37,20.62-6.41,53.58,22.81,49.19,22.81,49.19,5-28.43,11.93-27.33,18-17.65,18-17.65l1.83,4.84,12.25-.81s-16-34.54-7.51-38.91S1825.53,298.9,1826.86,295.06Z"/><path class="cls-34" d="M1789.1,343.92s8.13,29.55,14.86,29.87,29.68,4.09,34,7.47a6.26,6.26,0,0,1,1.94,6.85c-1.41,4.29-5.46,29.85,2.66,38.33,0,0-5.78,9.12-34.76-1s-44.25-23.9-44.25-23.9,20.79-39.55,13.33-56.79Z"/><path class="cls-33" d="M1775,334.85s-8.43-15.94-23.76-4.87c-11.15,8,3.67,35,15.22,34.43S1781.26,348.83,1775,334.85Z"/><path class="cls-35" d="M1823.82,531.4c-6.34-29.12-27.19-51.68-58.72-63.54-15.53-5.83-33.16-8.62-46.39-7.79-1.67,3.42-3.3,7.28-4.84,10.92a59.7,59.7,0,0,1,10-.9,110.42,110.42,0,0,1,37.47,7.1c16.32,6.14,44.82,21.61,52.37,56.29,2.93,13.46.36,25.43-7.84,36.57-23.12,31.37-84.09,45.83-113.19,51.09q.51,3.86,1.18,7.52c.14.81.29,1.61.43,2.42,30.3-5.37,94.36-20.48,119.94-55.2C1824.12,562.51,1827.33,547.55,1823.82,531.4Z"/><path class="cls-39" d="M1848.85,579.66l-84.08,36.1s-2.46-5.85-5.65-14.88c-9-25.62-23.82-76.85-4.57-92.69,46-37.84,76.75,23.89,88.71,55.12C1847,572.93,1848.85,579.66,1848.85,579.66Z"/><path class="cls-33" d="M1595.86,768.52s-6.52,13.93,1.46,21.78c6.78,6.69,10.72,18.45,11.94,22.07,1.63,4.85,13,19.34,6,19.81s-20-23.37-23.8-28.13-10,16.49-15,18.94-49.88-16.06-43.48-29.85,24.82-20.6,25.8-23.19,8.15-18.45,8.15-18.45Z"/><path class="cls-33" d="M1578.93,820.24s-23.32,40.5-27.93,41.58-7.5-.61-5.54-4.51,21-39.93,21-39.93-38.49,42.17-41.84,43.81c-2,1-7.74-2.08-6.94-4.29s35.53-46.42,35.53-46.42-36,39.31-39.53,39.88c-3.06.49-7.79-3.28-5.4-6.4s32.89-41.67,32.89-41.67-28.8,26.8-32.49,25.72c-2.25-.66-7.34-3.12.41-9.79s23.58-24.41,23.58-24.41Z"/><path class="cls-40" d="M1859.28,1016.87c-5.46-4.13-15.71-12.08-21.34-16.48,0,0,22.76-54.89,31-94.95C1868.92,905.44,1877.77,962.09,1859.28,1016.87Z"/><path class="cls-33" d="M1990.21,675s25.47-1.9,37.2-6.61,31-19.65,44.87-20.73,56.41-.31,59.39,2.5a3.67,3.67,0,0,1,.24,5.49s8.22-.93,7.29,4.8-10,6.82-10,6.82,1.71,4.24-2.63,8.13-11.77,5-11.77,5,5.58,3.22-3.18,9.61-37.16,11.89-47.49,12.74-39.09.84-41.73-.15-51.15,5.88-51.15,5.88Z"/><path class="cls-33" d="M2065.21,651.68s10.33-6,16.15-6.89,25.85-11.19,27.42-9.29c1.82,2.22-4.48,11.65-13.35,14.65S2065.21,651.68,2065.21,651.68Z"/></g></g></svg>